# Blender 3.3.1
# www.blender.org
mtllib Main_Etage_01_Eingang.mtl
o Eingang_Parkplatz_159
v -4.477455 5.943780 16.985813
v -4.477455 3.300000 16.985813
v -4.477455 5.943780 15.767385
v -4.477455 3.300000 15.767385
v -4.477455 5.943780 15.723289
v -4.477455 3.300000 15.723289
v -4.477455 5.943780 14.464787
v -4.477455 3.300000 14.464787
v -4.579706 5.943780 15.767385
v -4.579706 5.943780 16.985813
v -4.579706 3.300000 16.985813
v -4.579706 3.300000 15.767385
v -4.579706 3.300000 15.723289
v -4.579706 5.943780 15.723289
v -4.579706 3.300000 14.464787
v -4.579706 5.943780 14.464787
vn 1.0000 -0.0000 -0.0000
vn -1.0000 -0.0000 -0.0000
vn -0.0000 1.0000 -0.0000
vn -0.0000 -0.0000 1.0000
vn -0.0000 -1.0000 -0.0000
vn -0.0000 -0.0000 -1.0000
vt 0.000000 0.000000
vt 1.000000 0.000000
vt 0.000000 1.000000
vt 1.000000 1.000000
vt 0.000000 1.000000
vt 1.000000 1.000000
vt 0.000000 1.000000
vt 1.000000 1.000000
vt 0.000000 1.000000
vt 0.000000 0.000000
vt 1.000000 0.000000
vt 1.000000 1.000000
vt 1.000000 1.000000
vt 0.000000 1.000000
vt 1.000000 1.000000
vt 0.000000 1.000000
s 0
f 1/1/1 2/2/1 4/4/1 3/3/1
f 10/10/2 9/9/2 12/12/2 11/11/2
f 5/5/1 6/6/1 8/8/1 7/7/1
f 14/14/2 16/16/2 15/15/2 13/13/2
f 7/7/3 16/16/3 14/14/3 5/5/3
f 5/5/4 14/14/4 13/13/4 6/6/4
f 2/2/5 11/11/5 12/12/5 4/4/5
f 3/3/3 9/9/3 10/10/3 1/1/3
f 6/6/5 13/13/5 15/15/5 8/8/5
f 8/8/6 15/15/6 16/16/6 7/7/6
f 4/4/6 12/12/6 9/9/6 3/3/6
f 1/1/4 10/10/4 11/11/4 2/2/4
