# Blender 3.3.1
# www.blender.org
mtllib Main_Etage_03_Surrounding_01.mtl
o Surrounding_ParkingLot
v 15.237622 3.300000 7.113731
v 22.189493 3.300000 7.167665
v 15.320703 3.300000 -11.876623
v 22.189493 3.300000 -11.876623
v 15.280949 3.300000 -47.810986
v 22.189493 3.300000 -47.753494
v -123.949409 0.000000 -11.876623
v -123.905174 0.000000 -25.561783
v 15.280949 3.300000 24.360777
v 22.189493 3.300000 24.360777
v 92.764366 3.300000 7.167665
v 92.764366 3.300000 -11.876623
v 92.764366 3.300000 -47.753494
v 92.764366 3.300000 24.039413
v -4.210011 3.300000 7.167665
v -4.210011 3.300000 24.360777
v 53.495079 3.300000 7.167665
v 53.499565 3.300000 24.360777
v 53.495079 3.300000 -47.753494
v 53.495079 3.300000 -11.876623
v 92.764366 3.300000 43.849350
v 92.764366 0.000000 43.849350
v 92.764366 0.000000 49.439404
v 125.194527 3.300000 24.039413
v 92.764366 3.300000 49.439404
v 125.194527 3.300000 43.884869
v 125.194527 0.000000 49.439404
v 125.194527 3.300000 49.439404
v 69.451920 3.300000 24.360777
v 69.451920 3.300000 -11.876623
v 69.451920 3.300000 7.167665
v 69.451920 3.300000 -47.753494
v 69.451920 3.300000 43.849350
v 69.451920 0.000000 43.849350
vn -0.0000 1.0000 -0.0000
vn -0.0237 0.9997 -0.0000
vn -1.0000 -0.0000 -0.0000
vn -0.0000 -0.0000 1.0000
vt 0.000000 0.000000
vt 1.000000 0.000000
vt 0.000000 1.000000
vt 1.000000 1.000000
vt 0.000000 1.000000
vt 1.000000 1.000000
vt 0.000000 1.000000
vt 0.000000 1.000000
vt 0.000000 0.000000
vt 1.000000 0.000000
vt 1.000000 0.000000
vt 1.000000 1.000000
vt 1.000000 1.000000
vt 1.000000 0.000000
vt 0.000000 0.000000
vt 0.000000 0.000000
vt 1.000000 0.000000
vt 1.000000 0.000000
vt 1.000000 1.000000
vt 1.000000 1.000000
vt 1.000000 0.000000
vt 1.000000 0.000000
vt 1.000000 0.000000
vt 1.000000 0.000000
vt 1.000000 0.000000
vt 1.000000 0.000000
vt 1.000000 0.000000
vt 1.000000 0.000000
vt 1.000000 0.000000
vt 1.000000 1.000000
vt 1.000000 0.000000
vt 1.000000 1.000000
vt 1.000000 0.000000
vt 1.000000 0.000000
s 0
f 1/1/1 2/2/1 4/4/1 3/3/1
f 3/3/1 4/4/1 6/6/1 5/5/1
f 3/3/2 5/5/2 8/8/2 7/7/2
f 2/2/1 1/1/1 9/9/1 10/10/1
f 31/31/1 29/29/1 14/14/1 11/11/1
f 32/32/1 30/30/1 12/12/1 13/13/1
f 30/30/1 31/31/1 11/11/1 12/12/1
f 9/9/1 1/1/1 15/15/1 16/16/1
f 4/4/1 2/2/1 17/17/1 20/20/1
f 6/6/1 4/4/1 20/20/1 19/19/1
f 2/2/1 10/10/1 18/18/1 17/17/1
f 22/22/3 23/23/3 25/25/3 21/21/3
f 25/25/4 23/23/4 27/27/4 28/28/4
f 14/14/1 21/21/1 26/26/1 24/24/1
f 21/21/1 25/25/1 28/28/1 26/26/1
f 21/21/4 33/33/4 34/34/4 22/22/4
f 14/14/1 29/29/1 33/33/1 21/21/1
f 20/20/1 17/17/1 31/31/1 30/30/1
f 19/19/1 20/20/1 30/30/1 32/32/1
f 17/17/1 18/18/1 29/29/1 31/31/1
o Surrounding_ParkingLotAddition
v 53.499565 3.300000 24.360777
v 53.499565 3.300000 43.849350
v 53.495079 0.000000 43.849350
v 69.451920 3.300000 24.360777
v 69.451920 3.300000 43.849350
v 69.451920 0.000000 43.849350
vn -0.0000 1.0000 -0.0000
vn -0.0000 -0.0000 1.0000
vt 1.000000 0.000000
vt 1.000000 0.000000
vt 1.000000 0.000000
vt 1.000000 0.000000
vt 1.000000 0.000000
vt 1.000000 0.000000
s 0
f 38/38/5 35/35/5 36/36/5 39/39/5
f 39/39/6 36/36/6 37/37/6 40/40/6
