# Blender v2.93.1 OBJ File: 'WS2122_ChouliarasBurgdorfWolf_campusGeo_V13.blend'
# www.blender.org
mtllib Main_Etage_03_02.mtl
o 3100_135_3100
v -31.340492 10.193790 32.513351
v -30.291172 10.193790 32.513351
v -31.340492 10.193790 32.398937
v -30.291172 10.193790 32.398937
v -31.340492 10.193790 24.660706
v -30.291172 10.193790 24.660706
v -36.099625 10.193790 32.398937
v -36.099625 10.193790 24.660706
v -29.691597 10.193790 32.398937
v -29.691597 10.193790 24.660706
vt 1.000000 0.000000
vt 1.000000 0.000000
vt 1.000000 0.000000
vt 1.000000 0.000000
vt 1.000000 0.000000
vt 1.000000 0.000000
vt 1.000000 0.000000
vt 1.000000 0.000000
vt 1.000000 0.000000
vt 1.000000 0.000000
vn 0.0000 1.0000 0.0000
usemtl None
s off
f 1/1/1 2/2/1 4/3/1 3/4/1
f 3/4/1 4/3/1 6/5/1 5/6/1
f 3/4/1 5/6/1 8/7/1 7/8/1
f 6/5/1 4/3/1 9/9/1 10/10/1
o 3102_137_Plane.038
v -26.058380 10.193790 35.689373
v -27.251484 10.193790 35.689373
v -26.058380 10.193790 35.815197
v -27.251484 10.193790 35.815197
v -26.058380 10.193790 43.549282
v -27.251484 10.193790 43.549282
v -12.054031 10.193790 35.815197
v -12.054031 10.193790 43.549282
v -28.514874 10.193790 35.815197
v -28.514874 10.193790 43.549282
vt 1.000000 0.000000
vt 1.000000 0.000000
vt 1.000000 0.000000
vt 1.000000 0.000000
vt 1.000000 0.000000
vt 1.000000 0.000000
vt 1.000000 0.000000
vt 1.000000 0.000000
vt 1.000000 0.000000
vt 1.000000 0.000000
vn 0.0000 1.0000 0.0000
usemtl None
s off
f 11/11/2 12/12/2 14/13/2 13/14/2
f 13/14/2 14/13/2 16/15/2 15/16/2
f 13/14/2 15/16/2 18/17/2 17/18/2
f 16/15/2 14/13/2 19/19/2 20/20/2
o 3104_127_Plane.040
v 1.315605 10.193790 35.689373
v 0.106689 10.193790 35.689373
v 1.315605 10.193790 35.815197
v 0.106689 10.193790 35.815197
v 1.315605 10.193790 43.549282
v 0.106689 10.193790 43.549282
v -5.535736 10.193790 35.815197
v -5.535736 10.193790 43.549282
v 1.904472 10.193790 35.815197
v 1.904472 10.193790 43.549282
vt 1.000000 0.000000
vt 1.000000 0.000000
vt 1.000000 0.000000
vt 1.000000 0.000000
vt 1.000000 0.000000
vt 1.000000 0.000000
vt 1.000000 0.000000
vt 1.000000 0.000000
vt 1.000000 0.000000
vt 1.000000 0.000000
vn 0.0000 1.0000 0.0000
usemtl None
s off
f 21/21/3 22/22/3 24/23/3 23/24/3
f 23/24/3 24/23/3 26/25/3 25/26/3
f 26/25/3 24/23/3 27/27/3 28/28/3
f 23/24/3 25/26/3 30/29/3 29/30/3
o 3106_120_Plane.042
v 10.371552 10.193790 35.689373
v 9.170731 10.193790 35.689373
v 10.371552 10.193790 35.815197
v 9.170731 10.193790 35.815197
v 10.371552 10.193790 43.549282
v 9.170731 10.193790 43.549282
v 8.560448 10.193790 35.815197
v 8.560448 10.193790 43.549282
v 19.836266 10.193790 35.815197
v 19.836266 10.193790 43.549282
vt 1.000000 0.000000
vt 1.000000 0.000000
vt 1.000000 0.000000
vt 1.000000 0.000000
vt 1.000000 0.000000
vt 1.000000 0.000000
vt 1.000000 0.000000
vt 1.000000 0.000000
vt 1.000000 0.000000
vt 1.000000 0.000000
vn 0.0000 1.0000 0.0000
usemtl None
s off
f 31/31/4 32/32/4 34/33/4 33/34/4
f 33/34/4 34/33/4 36/35/4 35/36/4
f 36/35/4 34/33/4 37/37/4 38/38/4
f 33/34/4 35/36/4 40/39/4 39/40/4
o 3108_115_Plane.044
v 33.330063 10.193790 35.689373
v 32.124748 10.193790 35.689373
v 33.330063 10.193790 35.815197
v 32.124748 10.193790 35.815197
v 33.330063 10.193790 43.549282
v 32.124748 10.193790 43.549282
v 42.794777 10.193790 35.815197
v 42.794777 10.193790 43.549282
v 31.450233 10.193790 35.815197
v 31.450233 10.193790 43.549282
vt 1.000000 0.000000
vt 1.000000 0.000000
vt 1.000000 0.000000
vt 1.000000 0.000000
vt 1.000000 0.000000
vt 1.000000 0.000000
vt 1.000000 0.000000
vt 1.000000 0.000000
vt 1.000000 0.000000
vt 1.000000 0.000000
vn 0.0000 1.0000 0.0000
usemtl None
s off
f 41/41/5 42/42/5 44/43/5 43/44/5
f 43/44/5 44/43/5 46/45/5 45/46/5
f 43/44/5 45/46/5 48/47/5 47/48/5
f 46/45/5 44/43/5 49/49/5 50/50/5
o 3110_114_Plane.046
v 38.449921 10.193790 32.513351
v 37.259834 10.193790 32.513351
v 38.449921 10.193790 32.398937
v 37.259834 10.193790 32.398937
v 38.449921 10.193790 24.660706
v 37.259834 10.193790 24.660706
v 46.579071 10.193790 32.398937
v 46.579071 10.193790 24.660706
v 36.559677 10.193790 32.398937
v 36.559677 10.193790 24.660706
vt 1.000000 0.000000
vt 1.000000 0.000000
vt 1.000000 0.000000
vt 1.000000 0.000000
vt 1.000000 0.000000
vt 1.000000 0.000000
vt 1.000000 0.000000
vt 1.000000 0.000000
vt 1.000000 0.000000
vt 1.000000 0.000000
vn 0.0000 1.0000 0.0000
usemtl None
s off
f 52/51/6 51/52/6 53/53/6 54/54/6
f 54/54/6 53/53/6 55/55/6 56/56/6
f 55/55/6 53/53/6 57/57/6 58/58/6
f 54/54/6 56/56/6 60/59/6 59/60/6
o 3112_118_Plane.048
v 19.291542 10.193790 32.513351
v 18.099327 10.193790 32.513351
v 19.291542 10.193790 32.398937
v 18.099327 10.193790 32.398937
v 19.291542 10.193790 24.660706
v 18.099327 10.193790 24.660706
v 17.417763 10.193790 32.398937
v 17.417763 10.193790 24.660706
v 27.495987 10.193790 32.398937
v 27.495987 10.193790 24.660706
vt 1.000000 0.000000
vt 1.000000 0.000000
vt 1.000000 0.000000
vt 1.000000 0.000000
vt 1.000000 0.000000
vt 1.000000 0.000000
vt 1.000000 0.000000
vt 1.000000 0.000000
vt 1.000000 0.000000
vt 1.000000 0.000000
vn 0.0000 1.0000 0.0000
usemtl None
s off
f 62/61/7 61/62/7 63/63/7 64/64/7
f 64/64/7 63/63/7 65/65/7 66/66/7
f 64/64/7 66/66/7 68/67/7 67/68/7
f 65/65/7 63/63/7 69/69/7 70/70/7
o 3114_122_Plane.050
v 7.553833 10.193790 32.513351
v 6.629173 10.193790 32.513351
v 7.553833 10.193790 32.398937
v 6.629173 10.193790 32.398937
v 7.553833 10.193790 24.660706
v 6.629173 10.193790 24.660706
v 5.933235 10.193790 32.398937
v 5.933235 10.193790 24.660706
v 8.369637 10.193790 32.398937
v 8.369637 10.193790 24.660706
v 6.629173 10.193790 26.245556
v 7.553833 10.193790 26.245556
v 5.933235 10.193790 26.245556
v 8.369637 10.193790 26.245556
v 7.553833 10.193790 25.245768
v 8.369637 10.193790 25.245768
v 6.629173 10.193790 25.245768
v 5.933235 10.193790 25.245768
vt 1.000000 0.000000
vt 1.000000 0.000000
vt 1.000000 0.000000
vt 1.000000 0.000000
vt 1.000000 0.000000
vt 1.000000 0.000000
vt 1.000000 0.000000
vt 1.000000 0.000000
vt 1.000000 0.000000
vt 1.000000 0.000000
vt 1.000000 0.000000
vt 1.000000 0.000000
vt 1.000000 0.000000
vt 1.000000 0.000000
vt 1.000000 0.000000
vt 1.000000 0.000000
vt 1.000000 0.000000
vt 1.000000 0.000000
vn 0.0000 1.0000 0.0000
usemtl None
s off
f 72/71/8 71/72/8 73/73/8 74/74/8
f 87/75/8 85/76/8 75/77/8 76/78/8
f 87/75/8 76/78/8 78/79/8 88/80/8
f 82/81/8 73/73/8 79/82/8 84/83/8
f 85/76/8 82/81/8 84/83/8 86/84/8
f 74/74/8 81/85/8 83/86/8 77/87/8
f 74/74/8 73/73/8 82/81/8 81/85/8
f 75/77/8 85/76/8 86/84/8 80/88/8
f 81/85/8 87/75/8 88/80/8 83/86/8
f 81/85/8 82/81/8 85/76/8 87/75/8
o 3117_128_Plane.053
v 1.647774 10.193790 32.513351
v 0.723709 10.193790 32.513351
v 1.647774 10.193790 32.398937
v 0.723709 10.193790 32.398937
v 1.647774 10.193790 24.660706
v 0.723709 10.193790 24.660706
v -1.007210 10.193790 32.398937
v -1.007210 10.193790 24.660706
v 1.906517 10.193790 32.398937
v 1.906517 10.193790 24.660706
vt 1.000000 0.000000
vt 1.000000 0.000000
vt 1.000000 0.000000
vt 1.000000 0.000000
vt 1.000000 0.000000
vt 1.000000 0.000000
vt 1.000000 0.000000
vt 1.000000 0.000000
vt 1.000000 0.000000
vt 1.000000 0.000000
vn 0.0000 1.0000 0.0000
usemtl None
s off
f 90/89/9 89/90/9 91/91/9 92/92/9
f 92/92/9 91/91/9 93/93/9 94/94/9
f 92/92/9 94/94/9 96/95/9 95/96/9
f 93/93/9 91/91/9 97/97/9 98/98/9
o 3201_009_Plane.056
v 1.176872 10.193790 1.616110
v 0.251694 10.193790 1.616110
v 1.176872 10.193790 1.758866
v 0.251694 10.193790 1.758866
v 1.176872 10.193790 6.808841
v 0.251694 10.193790 6.808841
v -0.447220 10.193790 1.758866
v -0.447220 10.193790 6.808841
v 3.258713 10.193790 1.758866
v 3.258713 10.193790 6.808841
vt 1.000000 0.109375
vt 1.000000 0.109375
vt 1.000000 0.109375
vt 1.000000 0.109375
vt 1.000000 0.109375
vt 1.000000 0.109375
vt 1.000000 0.109375
vt 1.000000 0.109375
vt 1.000000 0.109375
vt 1.000000 0.109375
vn 0.0000 1.0000 0.0000
usemtl None
s off
f 99/99/10 100/100/10 102/101/10 101/102/10
f 101/102/10 102/101/10 104/103/10 103/104/10
f 104/103/10 102/101/10 105/105/10 106/106/10
f 101/102/10 103/104/10 108/107/10 107/108/10
o 3203_015_Plane.058
v 7.013489 10.193790 1.616110
v 7.943336 10.193790 1.616110
v 7.013489 10.193790 1.758866
v 7.943336 10.193790 1.758866
v 7.013489 10.193790 6.808841
v 7.943336 10.193790 6.808841
v 5.913086 10.193790 1.758866
v 5.913086 10.193790 6.808841
v 8.306175 10.193790 1.758866
v 8.306175 10.193790 6.808841
vt 1.000000 0.109375
vt 1.000000 0.109375
vt 1.000000 0.109375
vt 1.000000 0.109375
vt 1.000000 0.109375
vt 1.000000 0.109375
vt 1.000000 0.109375
vt 1.000000 0.109375
vt 1.000000 0.109375
vt 1.000000 0.109375
vn 0.0000 1.0000 0.0000
usemtl None
s off
f 110/109/11 109/110/11 111/111/11 112/112/11
f 112/112/11 111/111/11 113/113/11 114/114/11
f 113/113/11 111/111/11 115/115/11 116/116/11
f 112/112/11 114/114/11 118/117/11 117/118/11
o 3205_007_Plane.060
v -1.034431 10.193790 -1.464965
v -0.107712 10.193790 -1.464965
v -1.034431 10.193790 -1.637075
v -0.107712 10.193790 -1.637075
v -1.034431 10.193790 -10.401550
v -0.107712 10.193790 -10.401550
v 5.828056 10.193790 -1.637075
v 5.828056 10.193790 -10.401550
v -1.724373 10.193790 -1.637075
v -1.724373 10.193790 -10.401550
vt 1.000000 1.000000
vt 1.000000 1.000000
vt 1.000000 1.000000
vt 1.000000 1.000000
vt 1.000000 1.000000
vt 1.000000 1.000000
vt 1.000000 1.000000
vt 1.000000 1.000000
vt 1.000000 1.000000
vt 1.000000 1.000000
vn 0.0000 1.0000 0.0000
usemtl None
s off
f 119/119/12 120/120/12 122/121/12 121/122/12
f 121/122/12 122/121/12 124/123/12 123/124/12
f 124/123/12 122/121/12 125/125/12 126/126/12
f 121/122/12 123/124/12 128/127/12 127/128/12
o 3207_000_Plane.062
v -14.295746 10.193790 -1.464965
v -15.069176 10.193790 -1.464965
v -14.295746 10.193790 -1.637075
v -15.069176 10.193790 -1.637075
v -14.295746 10.193790 -10.401550
v -15.069176 10.193790 -10.401550
v -15.759117 10.193790 -1.637075
v -15.759117 10.193790 -10.401550
v -10.785675 10.193790 -1.637075
v -10.785675 10.193790 -10.401550
vt 1.000000 1.000000
vt 1.000000 1.000000
vt 1.000000 1.000000
vt 1.000000 1.000000
vt 1.000000 1.000000
vt 1.000000 1.000000
vt 1.000000 1.000000
vt 1.000000 1.000000
vt 1.000000 1.000000
vt 1.000000 1.000000
vn 0.0000 1.0000 0.0000
usemtl None
s off
f 130/129/13 129/130/13 131/131/13 132/132/13
f 132/132/13 131/131/13 133/133/13 134/134/13
f 132/132/13 134/134/13 136/135/13 135/136/13
f 133/133/13 131/131/13 137/137/13 138/138/13
o 3209_183_Plane.064
v -32.707775 10.193790 -1.464965
v -31.553875 10.193790 -1.464965
v -32.707775 10.193790 -1.637075
v -31.553875 10.193790 -1.637075
v -32.707775 10.193790 -10.401550
v -31.553875 10.193790 -10.401550
v -19.695183 10.193790 -1.637075
v -19.695183 10.193790 -10.401550
v -33.530048 10.193790 -1.637075
v -33.530048 10.193790 -10.401550
vt 0.971870 1.000000
vt 0.980698 1.000000
vt 0.980698 1.000000
vt 0.971870 1.000000
vt 0.980698 1.000000
vt 0.971870 1.000000
vt 0.980698 1.000000
vt 0.980698 1.000000
vt 0.971870 1.000000
vt 0.971870 1.000000
vn 0.0000 1.0000 0.0000
usemtl None
s off
f 139/139/14 140/140/14 142/141/14 141/142/14
f 141/142/14 142/141/14 144/143/14 143/144/14
f 144/143/14 142/141/14 145/145/14 146/146/14
f 141/142/14 143/144/14 148/147/14 147/148/14
o 3248_027_Plane.065
v -32.881260 10.193790 1.620998
v -31.950420 10.193790 1.620998
v -32.881260 10.193790 1.763753
v -31.950420 10.193790 1.763753
v -32.881260 10.193790 6.813729
v -31.950420 10.193790 6.813729
v -29.734734 10.193790 1.763753
v -29.734734 10.193790 6.813729
v -33.550430 10.193790 1.763753
v -33.550430 10.193790 6.813729
vt 0.980698 0.000000
vt 0.971870 0.000000
vt 0.971870 0.000000
vt 0.980698 0.000000
vt 0.971870 0.000000
vt 0.980698 0.000000
vt 0.980698 0.000000
vt 0.980698 0.000000
vt 0.971870 0.000000
vt 0.971870 0.000000
vn 0.0000 1.0000 0.0000
usemtl None
s off
f 150/149/15 149/150/15 151/151/15 152/152/15
f 152/152/15 151/151/15 153/153/15 154/154/15
f 152/152/15 154/154/15 156/155/15 155/156/15
f 153/153/15 151/151/15 157/157/15 158/158/15
o 3246_029_Plane.067
v -40.567101 10.193790 1.620998
v -39.629833 10.193790 1.620998
v -40.567101 10.193790 1.763753
v -39.629833 10.193790 1.763753
v -40.567101 10.193790 6.813729
v -39.629833 10.193790 6.813729
v -37.555416 10.193790 1.763753
v -37.555416 10.193790 6.813729
v -41.228828 10.193790 1.763753
v -41.228828 10.193790 6.813729
vt 0.907872 0.000000
vt 0.898984 0.000000
vt 0.898984 0.000000
vt 0.907872 0.000000
vt 0.898984 0.000000
vt 0.907872 0.000000
vt 0.907872 0.000000
vt 0.907872 0.000000
vt 0.898984 0.000000
vt 0.898984 0.000000
vn 0.0000 1.0000 0.0000
usemtl None
s off
f 160/159/16 159/160/16 161/161/16 162/162/16
f 162/162/16 161/161/16 163/163/16 164/164/16
f 162/162/16 164/164/16 166/165/16 165/166/16
f 163/163/16 161/161/16 167/167/16 168/168/16
o 3244_033_Plane.069
v -48.853661 10.193790 1.620998
v -47.926590 10.193790 1.620998
v -48.853661 10.193790 1.763753
v -47.926590 10.193790 1.763753
v -48.853661 10.193790 6.813729
v -47.926590 10.193790 6.813729
v -50.110210 10.193790 1.763753
v -50.110210 10.193790 6.813729
v -47.673794 10.193790 1.763753
v -47.673794 10.193790 6.813729
vt 0.829193 0.000000
vt 0.820401 0.000000
vt 0.820401 0.000000
vt 0.829193 0.000000
vt 0.820401 0.000000
vt 0.829193 0.000000
vt 0.820401 0.000000
vt 0.820401 0.000000
vt 0.829193 0.000000
vt 0.829193 0.000000
vn 0.0000 1.0000 0.0000
usemtl None
s off
f 170/169/17 169/170/17 171/171/17 172/172/17
f 172/172/17 171/171/17 173/173/17 174/174/17
f 173/173/17 171/171/17 175/175/17 176/176/17
f 172/172/17 174/174/17 178/177/17 177/178/17
o 3242_037_Plane.071
v -58.305988 10.193790 1.620998
v -57.383965 10.193790 1.620998
v -58.305988 10.193790 1.763753
v -57.383965 10.193790 1.763753
v -58.305988 10.193790 6.813729
v -57.383965 10.193790 6.813729
v -58.990028 10.193790 1.763753
v -58.990028 10.193790 6.813729
v -55.302116 10.193790 1.763753
v -55.302116 10.193790 6.813729
vt 0.748283 0.000000
vt 0.739834 0.000000
vt 0.739834 0.000000
vt 0.748283 0.000000
vt 0.739834 0.000000
vt 0.748283 0.000000
vt 0.739834 0.000000
vt 0.739834 0.000000
vt 0.748283 0.000000
vt 0.748283 0.000000
vn 0.0000 1.0000 0.0000
usemtl None
s off
f 180/179/18 179/180/18 181/181/18 182/182/18
f 182/182/18 181/181/18 183/183/18 184/184/18
f 183/183/18 181/181/18 185/185/18 186/186/18
f 182/182/18 184/184/18 188/187/18 187/188/18
o 3240_041_Plane.073
v -67.054855 10.193790 1.620998
v -66.124130 10.193790 1.620998
v -67.054855 10.193790 1.763753
v -66.124130 10.193790 1.763753
v -67.054855 10.193790 6.813729
v -66.124130 10.193790 6.813729
v -69.114403 10.193790 1.763753
v -69.114403 10.193790 6.813729
v -65.469833 10.193790 1.763753
v -65.469833 10.193790 6.813729
vt 0.668190 0.000000
vt 0.659662 0.000000
vt 0.659662 0.000000
vt 0.668190 0.000000
vt 0.659662 0.000000
vt 0.668190 0.000000
vt 0.659662 0.000000
vt 0.659662 0.000000
vt 0.668190 0.000000
vt 0.668190 0.000000
vn 0.0000 1.0000 0.0000
usemtl None
s off
f 190/189/19 189/190/19 191/191/19 192/192/19
f 192/192/19 191/191/19 193/193/19 194/194/19
f 193/193/19 191/191/19 195/195/19 196/196/19
f 192/192/19 194/194/19 198/197/19 197/198/19
o 3236_055_Plane.075
v -91.769905 10.193790 1.620998
v -90.841011 10.193790 1.620998
v -91.769905 10.193790 1.763753
v -90.841011 10.193790 1.763753
v -91.769905 10.193790 6.813729
v -90.841011 10.193790 6.813729
v -89.591904 10.193790 1.763753
v -89.591904 10.193790 6.813729
v -91.933472 10.193790 1.763753
v -91.933472 10.193790 6.813729
vt 0.386814 0.000000
vt 0.370290 0.000000
vt 0.370290 0.000000
vt 0.386814 0.000000
vt 0.370290 0.000000
vt 0.386814 0.000000
vt 0.386814 0.000000
vt 0.386814 0.000000
vt 0.370290 0.000000
vt 0.370290 0.000000
vn 0.0000 1.0000 0.0000
usemtl None
s off
f 200/199/20 199/200/20 201/201/20 202/202/20
f 202/202/20 201/201/20 203/203/20 204/204/20
f 202/202/20 204/204/20 206/205/20 205/206/20
f 203/203/20 201/201/20 207/207/20 208/208/20
o 3234_063_Plane.077
v -103.800171 10.193790 1.620998
v -102.881187 10.193790 1.620998
v -103.800171 10.193790 1.763753
v -102.881187 10.193790 1.763753
v -103.800171 10.193790 6.813729
v -102.881187 10.193790 6.813729
v -105.904327 10.193790 1.763753
v -105.904327 10.193790 6.813729
v -102.197151 10.193790 1.763753
v -102.197151 10.193790 6.813729
vt 0.331360 0.000000
vt 0.322939 0.000000
vt 0.322939 0.000000
vt 0.331360 0.000000
vt 0.322939 0.000000
vt 0.331360 0.000000
vt 0.322939 0.000000
vt 0.322939 0.000000
vt 0.331360 0.000000
vt 0.331360 0.000000
vn 0.0000 1.0000 0.0000
usemtl None
s off
f 210/209/21 209/210/21 211/211/21 212/212/21
f 212/212/21 211/211/21 213/213/21 214/214/21
f 213/213/21 211/211/21 215/215/21 216/216/21
f 212/212/21 214/214/21 218/217/21 217/218/21
o 3232_068_Plane.079
v -111.413185 10.193790 1.620998
v -110.476562 10.193790 1.620998
v -111.413185 10.193790 1.763753
v -110.476562 10.193790 1.763753
v -111.413185 10.193790 6.813729
v -110.476562 10.193790 6.813729
v -112.231049 10.193790 1.763753
v -112.231049 10.193790 6.813729
v -109.814835 10.193790 1.763753
v -109.814835 10.193790 6.813729
vt 0.261676 0.000000
vt 0.250000 0.000000
vt 0.250000 0.000000
vt 0.261676 0.000000
vt 0.250000 0.000000
vt 0.261676 0.000000
vt 0.250000 0.000000
vt 0.250000 0.000000
vt 0.261676 0.000000
vt 0.261676 0.000000
vn 0.0000 1.0000 0.0000
usemtl None
s off
f 220/219/22 219/220/22 221/221/22 222/222/22
f 222/222/22 221/221/22 223/223/22 224/224/22
f 223/223/22 221/221/22 225/225/22 226/226/22
f 222/222/22 224/224/22 228/227/22 227/228/22
o 3230_072_Plane.081
v -118.226624 10.193790 1.620998
v -119.148956 10.193790 1.620998
v -118.226624 10.193790 1.763753
v -119.148956 10.193790 1.763753
v -118.226624 10.193790 6.813729
v -119.148956 10.193790 6.813729
v -116.157417 10.193790 1.763753
v -116.157417 10.193790 6.813729
v -119.839691 10.193790 1.763753
v -119.839691 10.193790 6.813729
vt 0.185644 0.000000
vt 0.176465 0.000000
vt 0.176465 0.000000
vt 0.185644 0.000000
vt 0.176465 0.000000
vt 0.185644 0.000000
vt 0.185644 0.000000
vt 0.185644 0.000000
vt 0.176465 0.000000
vt 0.176465 0.000000
vn 0.0000 1.0000 0.0000
usemtl None
s off
f 229/229/23 230/230/23 232/231/23 231/232/23
f 231/232/23 232/231/23 234/233/23 233/234/23
f 231/232/23 233/234/23 236/235/23 235/236/23
f 234/233/23 232/231/23 237/237/23 238/238/23
o 3228_091_Plane.083
v -128.040253 10.193790 1.620998
v -127.118179 10.193790 1.620998
v -128.040253 10.193790 1.763753
v -127.118179 10.193790 1.763753
v -128.040253 10.193790 6.813729
v -127.118179 10.193790 6.813729
v -123.757462 10.193790 1.763753
v -123.757462 10.193790 6.813729
v -128.704224 10.193790 1.763753
v -128.704224 10.193790 6.813729
vt 0.109260 0.000000
vt 0.100879 0.000000
vt 0.100879 0.000000
vt 0.109260 0.000000
vt 0.100879 0.000000
vt 0.109260 0.000000
vt 0.109260 0.000000
vt 0.109260 0.000000
vt 0.100879 0.000000
vt 0.100879 0.000000
vn 0.0000 1.0000 0.0000
usemtl None
s off
f 240/239/24 239/240/24 241/241/24 242/242/24
f 242/242/24 241/241/24 243/243/24 244/244/24
f 242/242/24 244/244/24 246/245/24 245/246/24
f 243/243/24 241/241/24 247/247/24 248/248/24
o 3226_080_Plane.085
v -135.637299 10.193790 1.620998
v -134.719467 10.193790 1.620998
v -135.637299 10.193790 1.763753
v -134.719467 10.193790 1.763753
v -135.637299 10.193790 6.813729
v -134.719467 10.193790 6.813729
v -136.313889 10.193790 1.763753
v -136.313889 10.193790 6.813729
v -132.652496 10.193790 1.763753
v -132.652496 10.193790 6.813729
vt 0.041875 0.000000
vt 0.031250 0.000000
vt 0.031250 0.000000
vt 0.041875 0.000000
vt 0.031250 0.000000
vt 0.041875 0.000000
vt 0.031250 0.000000
vt 0.031250 0.000000
vt 0.041875 0.000000
vt 0.041875 0.000000
vn 0.0000 1.0000 0.0000
usemtl None
s off
f 250/249/25 249/250/25 251/251/25 252/252/25
f 252/252/25 251/251/25 253/253/25 254/254/25
f 253/253/25 251/251/25 255/255/25 256/256/25
f 252/252/25 254/254/25 258/257/25 257/258/25
o 3224_088_Plane.087
v -140.293182 10.193790 1.620998
v -141.217361 10.193790 1.620998
v -140.293182 10.193790 1.763753
v -141.217361 10.193790 1.763753
v -140.293182 10.193790 6.813729
v -141.217361 10.193790 6.813729
v -142.674652 10.193790 1.763753
v -142.674652 10.193790 6.813729
v -138.984589 10.193790 1.763753
v -138.984589 10.193790 6.813729
vt 0.000000 0.000000
vt 0.000000 0.000000
vt 0.000000 0.000000
vt 0.000000 0.000000
vt 0.000000 0.000000
vt 0.000000 0.000000
vt 0.000000 0.000000
vt 0.000000 0.000000
vt 0.000000 0.000000
vt 0.000000 0.000000
vn 0.0000 1.0000 0.0000
usemtl None
s off
f 259/259/26 260/260/26 262/261/26 261/262/26
f 261/262/26 262/261/26 264/263/26 263/264/26
f 264/263/26 262/261/26 265/265/26 266/266/26
f 261/262/26 263/264/26 268/267/26 267/268/26
o 3222_081_Plane.089
v -135.651550 10.193790 -1.464965
v -134.471619 10.193790 -1.464965
v -135.651550 10.193790 -1.637075
v -134.471619 10.193790 -1.637075
v -135.651550 10.193790 -10.401550
v -134.471619 10.193790 -10.401550
v -140.032349 10.193790 -1.637075
v -140.032349 10.193790 -10.401550
v -126.298874 10.193790 -1.637075
v -126.298874 10.193790 -10.401550
vt 0.031250 1.000000
vt 0.041875 1.000000
vt 0.041875 1.000000
vt 0.031250 1.000000
vt 0.041875 1.000000
vt 0.031250 1.000000
vt 0.031250 1.000000
vt 0.031250 1.000000
vt 0.041875 1.000000
vt 0.041875 1.000000
vn 0.0000 1.0000 0.0000
usemtl None
s off
f 269/269/27 270/270/27 272/271/27 271/272/27
f 271/272/27 272/271/27 274/273/27 273/274/27
f 271/272/27 273/274/27 276/275/27 275/276/27
f 274/273/27 272/271/27 277/277/27 278/278/27
o 3220_067_Plane.091
v -111.550140 10.193790 -1.637075
v -110.371986 10.193790 -1.637075
v -111.550140 10.193790 -10.401550
v -110.371986 10.193790 -10.401550
v -112.237152 10.193790 -1.637075
v -112.237152 10.193790 -10.401550
v -100.944916 10.193790 -1.637075
v -100.944916 10.193790 -10.401550
vt 0.250000 1.000000
vt 0.261676 1.000000
vt 0.261676 1.000000
vt 0.250000 1.000000
vt 0.250000 1.000000
vt 0.250000 1.000000
vt 0.261676 1.000000
vt 0.261676 1.000000
vn 0.0000 1.0000 0.0000
usemtl None
s off
f 279/279/28 280/280/28 282/281/28 281/282/28
f 279/279/28 281/282/28 284/283/28 283/284/28
f 282/281/28 280/280/28 285/285/28 286/286/28
o 3218_053_Plane.093
v -87.193398 10.193790 -1.464965
v -88.125305 10.193790 -1.464965
v -87.193398 10.193790 -1.637075
v -88.125305 10.193790 -1.637075
v -87.193398 10.193790 -10.401550
v -88.125305 10.193790 -10.401550
v -89.340958 10.193790 -1.637075
v -89.340958 10.193790 -10.401550
v -83.197166 10.193790 -1.637075
v -83.197166 10.193790 -10.401550
vt 0.435122 1.000000
vt 0.451700 1.000000
vt 0.451700 1.000000
vt 0.435122 1.000000
vt 0.451700 1.000000
vt 0.435122 1.000000
vt 0.435122 1.000000
vt 0.435122 1.000000
vt 0.451700 1.000000
vt 0.451700 1.000000
vn 0.0000 1.0000 0.0000
usemtl None
s off
f 288/287/29 287/288/29 289/289/29 290/290/29
f 290/290/29 289/289/29 291/291/29 292/292/29
f 290/290/29 292/292/29 294/293/29 293/294/29
f 291/291/29 289/289/29 295/295/29 296/296/29
o 3216_043_Plane.095
v -72.806587 10.193790 -1.464965
v -71.635483 10.193790 -1.464965
v -72.806587 10.193790 -1.637075
v -71.635483 10.193790 -1.637075
v -72.806587 10.193790 -10.401550
v -71.635483 10.193790 -10.401550
v -74.203163 10.193790 -1.637075
v -74.203163 10.193790 -10.401550
v -59.090706 10.193790 -1.637075
v -59.090706 10.193790 -10.401550
vt 0.606955 1.000000
vt 0.617686 1.000000
vt 0.617686 1.000000
vt 0.606955 1.000000
vt 0.617686 1.000000
vt 0.606955 1.000000
vt 0.606955 1.000000
vt 0.606955 1.000000
vt 0.617686 1.000000
vt 0.617686 1.000000
vn 0.0000 1.0000 0.0000
usemtl None
s off
f 297/297/30 298/298/30 300/299/30 299/300/30
f 299/300/30 300/299/30 302/301/30 301/302/30
f 299/300/30 301/302/30 304/303/30 303/304/30
f 302/301/30 300/299/30 305/305/30 306/306/30
