# Blender v2.93.1 OBJ File: 'WS2122_ChouliarasBurgdorfWolf_campusGeo_V13.blend'
# www.blender.org
mtllib Main_Etage_00_Eingang.mtl
o Eingang_HofL_636_Plane.303
v -29.787659 2.643780 16.793112
v -29.787657 0.000000 16.793112
v -29.787659 2.643780 15.574684
v -29.787657 0.000000 15.574684
v -29.787659 2.643780 15.530588
v -29.787657 0.000000 15.530588
v -29.787659 2.643780 14.272085
v -29.787657 0.000000 14.272085
v -29.889908 2.643780 15.574684
v -29.889908 2.643780 16.793112
v -29.889908 0.000000 16.793112
v -29.889908 0.000000 15.574684
v -29.889908 0.000000 15.530588
v -29.889908 2.643780 15.530588
v -29.889908 0.000000 14.272085
v -29.889908 2.643780 14.272085
vt 0.000000 0.000000
vt 1.000000 0.000000
vt 1.000000 1.000000
vt 0.000000 1.000000
vt 0.000000 0.000000
vt 0.000000 1.000000
vt 1.000000 1.000000
vt 1.000000 0.000000
vt 0.000000 1.000000
vt 1.000000 1.000000
vt 1.000000 1.000000
vt 0.000000 1.000000
vt 0.000000 1.000000
vt 0.000000 1.000000
vt 1.000000 1.000000
vt 1.000000 1.000000
vn 1.0000 0.0000 0.0000
vn -1.0000 0.0000 0.0000
vn 0.0000 1.0000 0.0000
vn 0.0000 0.0000 1.0000
vn 0.0000 -1.0000 0.0000
vn 0.0000 0.0000 -1.0000
usemtl None
s off
f 1/1/1 2/2/1 4/3/1 3/4/1
f 10/5/2 9/6/2 12/7/2 11/8/2
f 5/9/1 6/10/1 8/11/1 7/12/1
f 14/13/2 16/14/2 15/15/2 13/16/2
f 7/12/3 16/14/3 14/13/3 5/9/3
f 5/9/4 14/13/4 13/16/4 6/10/4
f 2/2/5 11/8/5 12/7/5 4/3/5
f 3/4/3 9/6/3 10/5/3 1/1/3
f 6/10/5 13/16/5 15/15/5 8/11/5
f 8/11/6 15/15/6 16/14/6 7/12/6
f 4/3/6 12/7/6 9/6/6 3/4/6
f 1/1/4 10/5/4 11/8/4 2/2/4
o Eingang_HofR_164_Plane.304
v -29.787659 2.643780 30.262022
v -29.787657 0.000000 30.262022
v -29.787659 2.643780 29.043594
v -29.787657 0.000000 29.043594
v -29.787659 2.643780 28.999498
v -29.787657 0.000000 28.999498
v -29.787659 2.643780 27.740995
v -29.787657 0.000000 27.740995
v -29.889908 2.643780 29.043594
v -29.889908 2.643780 30.262022
v -29.889908 0.000000 30.262022
v -29.889908 0.000000 29.043594
v -29.889908 0.000000 28.999498
v -29.889908 2.643780 28.999498
v -29.889908 0.000000 27.740995
v -29.889908 2.643780 27.740995
vt 0.000000 0.000000
vt 1.000000 0.000000
vt 1.000000 1.000000
vt 0.000000 1.000000
vt 0.000000 0.000000
vt 0.000000 1.000000
vt 1.000000 1.000000
vt 1.000000 0.000000
vt 0.000000 1.000000
vt 1.000000 1.000000
vt 1.000000 1.000000
vt 0.000000 1.000000
vt 0.000000 1.000000
vt 0.000000 1.000000
vt 1.000000 1.000000
vt 1.000000 1.000000
vn 1.0000 0.0000 0.0000
vn -1.0000 0.0000 0.0000
vn 0.0000 1.0000 0.0000
vn 0.0000 0.0000 1.0000
vn 0.0000 -1.0000 0.0000
vn 0.0000 0.0000 -1.0000
usemtl None
s off
f 17/17/7 18/18/7 20/19/7 19/20/7
f 26/21/8 25/22/8 28/23/8 27/24/8
f 21/25/7 22/26/7 24/27/7 23/28/7
f 30/29/8 32/30/8 31/31/8 29/32/8
f 23/28/9 32/30/9 30/29/9 21/25/9
f 21/25/10 30/29/10 29/32/10 22/26/10
f 18/18/11 27/24/11 28/23/11 20/19/11
f 19/20/9 25/22/9 26/21/9 17/17/9
f 22/26/11 29/32/11 31/31/11 24/27/11
f 24/27/12 31/31/12 32/30/12 23/28/12
f 20/19/12 28/23/12 25/22/12 19/20/12
f 17/17/10 26/21/10 27/24/10 18/18/10
