# Blender v2.93.1 OBJ File: 'WS2122_ChouliarasBurgdorfWolf_campusGeo_V13.blend'
# www.blender.org
mtllib Surrounding_Grund.mtl
o Surrounding_BuildingGround_Plane.031
v 15.237622 3.300000 7.113731
v 15.320703 3.300000 -11.876623
v -123.949409 0.000000 -11.876623
v 15.280949 3.300000 24.360777
v 22.189493 3.300000 24.360777
v -123.949409 0.000000 7.113731
v -31.536985 0.000000 7.113731
v -30.189905 0.000000 24.039413
v -4.210011 3.300000 7.167665
v -4.210011 3.300000 24.360777
v 53.499565 3.300000 24.360777
v 53.495079 0.000000 43.849350
v -30.189905 0.000000 43.849350
v -41.750252 0.000000 7.113731
v -29.889906 0.000000 7.113731
v -29.889906 0.000000 24.039413
v 69.451920 -0.800001 24.360777
v 69.451920 3.300000 24.360777
v 69.451920 3.300000 43.849350
v 69.451920 0.000000 43.849350
v 15.237623 -0.800001 7.113731
v 15.320704 -0.800001 -11.876623
v -123.949409 -0.800001 -11.876623
v 15.280949 -0.800001 24.360777
v 22.189493 -0.800001 24.360777
v -123.949409 -0.800001 7.113731
v -31.536985 -0.800001 7.113731
v -30.189905 -0.800001 24.039413
v -4.210011 -0.800001 7.167665
v -4.210011 -0.800001 24.360777
v 53.499565 -0.800001 24.360777
v 53.495079 -0.800001 43.849350
v -30.189905 -0.800001 43.849350
v -41.750252 -0.800001 7.113731
v -29.889906 -0.800001 7.113731
v -29.889906 -0.800001 24.039413
v 69.451920 -0.800001 43.849350
vt 1.000000 0.000000
vt 1.000000 0.000000
vt 1.000000 0.000000
vt 0.000000 0.000000
vt 0.000000 0.000000
vt 0.000000 0.000000
vt 0.000000 0.000000
vt 0.000000 1.000000
vt 0.000000 1.000000
vt 0.000000 1.000000
vt 0.000000 1.000000
vt 1.000000 0.000000
vt 1.000000 0.000000
vt 0.000000 0.000000
vt 0.000000 0.000000
vt 0.000000 1.000000
vt 0.000000 1.000000
vt 1.000000 0.000000
vt 1.000000 0.000000
vt 0.000000 0.000000
vt 0.000000 0.000000
vt 0.000000 1.000000
vt 0.000000 1.000000
vt 0.000000 1.000000
vt 0.000000 1.000000
vt 1.000000 0.000000
vt 1.000000 0.000000
vt 0.000000 1.000000
vt 0.000000 1.000000
vt 0.000000 1.000000
vt 0.000000 1.000000
vt 0.000000 1.000000
vt 0.000000 1.000000
vt 0.000000 1.000000
vt 0.000000 1.000000
vt 1.000000 0.000000
vt 1.000000 0.000000
vt 0.000000 1.000000
vt 0.000000 1.000000
vt 0.000000 0.000000
vt 0.000000 0.000000
vt 0.000000 0.000000
vt 0.000000 0.000000
vt 0.000000 0.000000
vt 0.000000 0.000000
vt 0.000000 0.000000
vt 0.000000 0.000000
vt 0.000000 0.000000
vt 0.000000 0.000000
vt 0.000000 0.000000
vt 0.000000 0.000000
vt 0.000000 0.000000
vt 0.000000 0.000000
vn -1.0000 0.0000 0.0000
vn 1.0000 0.0000 0.0000
vn 0.0000 0.0000 1.0000
vn 0.0000 0.0000 -1.0000
vn -0.0028 -0.0000 -1.0000
vn -1.0000 -0.0000 -0.0044
vn 0.0000 1.0000 0.0000
usemtl None
s off
f 17/1/1 37/2/1 20/3/1
f 9/4/1 29/5/1 30/6/1 10/7/1
f 16/8/2 36/9/2 35/10/2 15/11/2
f 18/12/1 17/1/1 20/3/1 19/13/1
f 10/7/3 30/6/3 24/14/3 4/15/3
f 15/11/4 35/10/4 27/16/4 7/17/4
f 11/18/3 31/19/3 17/1/3 18/12/3
f 1/20/5 21/21/5 29/5/5 9/4/5
f 2/22/6 22/23/6 21/21/6 1/20/6
f 8/24/4 16/8/4 36/9/4 28/25/4
f 5/26/3 25/27/3 31/19/3 11/18/3
f 3/28/3 23/29/3 22/23/3 2/22/3
f 4/15/3 24/14/3 25/27/3 5/26/3
f 13/30/2 33/31/2 28/25/2 8/24/2
f 6/32/2 26/33/2 23/29/2 3/28/2
f 7/17/4 27/16/4 34/34/4 14/35/4
f 20/3/4 37/2/4 32/36/4 12/37/4
f 14/35/4 34/34/4 26/33/4 6/32/4
f 12/38/4 32/39/4 33/31/4 13/30/4
f 36/9/7 30/6/7 29/5/7 35/10/7
f 33/40/7 36/41/7 28/42/7
f 33/40/7 30/6/7 36/41/7
f 33/40/7 24/14/7 30/6/7
f 25/43/7 24/14/7 32/44/7
f 31/45/7 25/43/7 32/44/7
f 22/46/7 27/47/7 35/48/7
f 32/44/7 37/49/7 31/45/7
f 32/44/7 24/14/7 33/40/7
f 31/45/7 37/49/7 17/50/7
f 22/46/7 29/5/7 21/21/7
f 35/48/7 29/5/7 22/46/7
f 22/46/7 34/51/7 27/47/7
f 26/52/7 34/51/7 23/53/7
f 23/53/7 34/51/7 22/46/7
o Surrounding_MensaGround_Plane.307
v -123.905174 0.000000 27.851416
v -155.916656 0.000000 27.851416
v -155.916656 0.000000 46.006477
v -112.446587 0.000000 71.681580
v -112.446587 0.000000 55.522919
v -118.129890 0.000000 27.851416
v -118.129890 0.000000 55.522919
v -150.108521 0.000000 71.681580
v -150.108521 0.000000 46.006477
v -123.905174 -5.014879 27.851416
v -155.916656 -5.014879 27.851416
v -155.916656 -5.014879 46.006477
v -112.446587 -5.014879 71.681580
v -112.446587 -5.014879 55.522919
v -118.129890 -5.014879 27.851416
v -118.129890 -5.014879 55.522919
v -150.108521 -5.014879 71.681580
v -150.108521 -5.014879 46.006477
vt 0.000000 1.000000
vt 0.000000 1.000000
vt 0.000000 1.000000
vt 0.000000 1.000000
vt 0.000000 1.000000
vt 0.000000 1.000000
vt 0.000000 1.000000
vt 0.000000 1.000000
vt 0.000000 1.000000
vt 0.000000 1.000000
vt 0.000000 1.000000
vt 0.000000 1.000000
vt 0.000000 1.000000
vt 0.000000 1.000000
vt 0.000000 1.000000
vt 0.000000 1.000000
vt 0.000000 1.000000
vt 0.000000 1.000000
vt 0.000000 0.000000
vt 0.000000 0.000000
vt 0.000000 0.000000
vt 0.000000 0.000000
vt 0.000000 0.000000
vt 0.000000 0.000000
vt 0.000000 0.000000
vt 0.000000 0.000000
vt 0.000000 0.000000
vn 0.0000 0.0000 1.0000
vn -1.0000 0.0000 0.0000
vn 1.0000 0.0000 0.0000
vn 0.0000 0.0000 -1.0000
vn 0.0000 1.0000 0.0000
usemtl None
s off
f 38/54/8 39/55/8 48/56/8 47/57/8
f 44/58/9 43/59/9 52/60/9 53/61/9
f 39/55/10 40/62/10 49/63/10 48/56/10
f 46/64/10 45/65/10 54/66/10 55/67/10
f 42/68/8 44/58/8 53/61/8 51/69/8
f 45/65/11 41/70/11 50/71/11 54/66/11
f 43/59/8 38/54/8 47/57/8 52/60/8
f 41/70/9 42/68/9 51/69/9 50/71/9
f 40/62/11 46/64/11 55/67/11 49/63/11
f 49/72/12 55/73/12 48/74/12
f 47/75/12 55/73/12 53/76/12
f 55/73/12 47/75/12 48/74/12
f 52/77/12 47/75/12 53/76/12
f 54/78/12 53/76/12 55/73/12
f 54/78/12 50/79/12 53/76/12
f 50/79/12 51/80/12 53/76/12
