# Blender 3.3.1
# www.blender.org
mtllib 3105_125.mtl
o 3105_125
v 5.462265 10.193790 35.689373
v 6.406425 10.193790 35.689373
v 5.462265 10.193790 35.815197
v 6.406425 10.193790 35.815197
v 5.462265 10.193790 38.330528
v 6.406425 10.193790 38.330528
v 6.666664 10.193790 35.815197
v 6.666664 10.193790 38.330528
v 2.183342 10.193790 35.815197
v 2.183342 10.193790 38.330528
vn -0.0000 1.0000 -0.0000
vt 1.000000 0.000000
vt 1.000000 0.000000
vt 1.000000 0.000000
vt 1.000000 0.000000
vt 1.000000 0.000000
vt 1.000000 0.000000
vt 1.000000 0.000000
vt 1.000000 0.000000
vt 1.000000 0.000000
vt 1.000000 0.000000
s 0
f 2/2/1 1/1/1 3/3/1 4/4/1
f 4/4/1 3/3/1 5/5/1 6/6/1
f 4/4/1 6/6/1 8/8/1 7/7/1
f 5/5/1 3/3/1 9/9/1 10/10/1
