# Blender 3.3.1
# www.blender.org
mtllib 3200_005.mtl
o 3200_005
v -2.606407 10.193790 1.616110
v -3.537773 10.193790 1.616110
v -2.606407 10.193790 1.758866
v -3.537773 10.193790 1.758866
v -2.606407 10.193790 6.808841
v -3.537773 10.193790 6.808841
v -0.576607 10.193790 1.758866
v -0.576607 10.193790 6.808841
v -4.206940 10.193790 1.758866
v -4.206940 10.193790 6.808841
v -2.606407 12.843790 1.758866
v -3.537773 12.843790 1.758866
v -2.606407 12.843790 6.808841
v -3.537773 12.843790 6.808841
v -0.576607 12.843790 1.758866
v -0.576607 12.843790 6.808841
v -4.206940 12.843790 1.758866
v -4.206940 12.843790 6.808841
vn -0.0000 1.0000 -0.0000
vn -0.0000 -0.0000 -1.0000
vn -1.0000 -0.0000 -0.0000
vn -0.0000 -0.0000 1.0000
vn 1.0000 -0.0000 -0.0000
vt 1.000000 0.109375
vt 1.000000 0.109375
vt 1.000000 0.109375
vt 1.000000 0.109375
vt 1.000000 0.109375
vt 1.000000 0.109375
vt 1.000000 0.109375
vt 1.000000 0.109375
vt 1.000000 0.109375
vt 1.000000 0.109375
vt 1.000000 0.109375
vt 1.000000 0.109375
vt 1.000000 0.109375
vt 1.000000 0.109375
vt 1.000000 0.109375
vt 1.000000 0.109375
vt 1.000000 0.109375
vt 1.000000 0.109375
s 0
f 1/1/1 2/2/1 4/4/1 3/3/1
f 3/3/1 4/4/1 6/6/1 5/5/1
f 3/3/1 5/5/1 8/8/1 7/7/1
f 6/6/1 4/4/1 9/9/1 10/10/1
f 5/5/2 6/6/2 14/14/2 13/13/2
f 7/7/3 8/8/3 16/16/3 15/15/3
f 3/3/4 7/7/4 15/15/4 11/11/4
f 8/8/2 5/5/2 13/13/2 16/16/2
f 10/10/5 9/9/5 17/17/5 18/18/5
f 6/6/2 10/10/2 18/18/2 14/14/2
f 9/9/4 4/4/4 12/12/4 17/17/4
