# Blender 3.3.1
# www.blender.org
mtllib 3201_009.mtl
o 3201_009
v 1.176872 10.193790 1.616110
v 0.251694 10.193790 1.616110
v 1.176872 10.193790 1.758866
v 0.251694 10.193790 1.758866
v 1.176872 10.193790 6.808841
v 0.251694 10.193790 6.808841
v -0.447220 10.193790 1.758866
v -0.447220 10.193790 6.808841
v 3.258713 10.193790 1.758866
v 3.258713 10.193790 6.808841
v 1.176872 12.843790 1.758866
v 0.251694 12.843790 1.758866
v 1.176872 12.843790 6.808841
v 0.251694 12.843790 6.808841
v -0.447220 12.843790 1.758866
v -0.447220 12.843790 6.808841
v 3.258713 12.843790 1.758866
v 3.258713 12.843790 6.808841
vn -0.0000 1.0000 -0.0000
vn -0.0000 -0.0000 -1.0000
vn -0.0000 -0.0000 1.0000
vn -1.0000 -0.0000 -0.0000
vn 1.0000 -0.0000 -0.0000
vt 1.000000 0.109375
vt 1.000000 0.109375
vt 1.000000 0.109375
vt 1.000000 0.109375
vt 1.000000 0.109375
vt 1.000000 0.109375
vt 1.000000 0.109375
vt 1.000000 0.109375
vt 1.000000 0.109375
vt 1.000000 0.109375
vt 1.000000 0.109375
vt 1.000000 0.109375
vt 1.000000 0.109375
vt 1.000000 0.109375
vt 1.000000 0.109375
vt 1.000000 0.109375
vt 1.000000 0.109375
vt 1.000000 0.109375
s 0
f 1/1/1 2/2/1 4/4/1 3/3/1
f 3/3/1 4/4/1 6/6/1 5/5/1
f 6/6/1 4/4/1 7/7/1 8/8/1
f 3/3/1 5/5/1 10/10/1 9/9/1
f 6/6/2 8/8/2 16/16/2 14/14/2
f 5/5/2 6/6/2 14/14/2 13/13/2
f 7/7/3 4/4/3 12/12/3 15/15/3
f 9/9/4 10/10/4 18/18/4 17/17/4
f 3/3/3 9/9/3 17/17/3 11/11/3
f 10/10/2 5/5/2 13/13/2 18/18/2
f 8/8/5 7/7/5 15/15/5 16/16/5
