# Blender 3.3.1
# www.blender.org
mtllib 3206_004.mtl
o 3206_004
v -3.593124 10.193790 -1.464965
v -2.525734 10.193790 -1.464965
v -3.593124 10.193790 -1.637075
v -2.525734 10.193790 -1.637075
v -3.593124 10.193790 -10.401550
v -2.525734 10.193790 -10.401550
v -10.651810 10.193790 -1.637075
v -10.651810 10.193790 -10.401550
v -1.840942 10.193790 -1.637075
v -1.840942 10.193790 -10.401550
v -3.593124 12.843790 -1.637075
v -2.525734 12.843790 -1.637075
v -3.593124 12.843790 -10.401550
v -2.525734 12.843790 -10.401550
v -10.651810 12.843790 -1.637075
v -10.651810 12.843790 -10.401550
v -1.840942 12.843790 -1.637075
v -1.840942 12.843790 -10.401550
vn -0.0000 1.0000 -0.0000
vn -1.0000 -0.0000 -0.0000
vn -0.0000 -0.0000 1.0000
vn -0.0000 -0.0000 -1.0000
vn 1.0000 -0.0000 -0.0000
vt 1.000000 1.000000
vt 1.000000 1.000000
vt 1.000000 1.000000
vt 1.000000 1.000000
vt 1.000000 1.000000
vt 1.000000 1.000000
vt 1.000000 1.000000
vt 1.000000 1.000000
vt 1.000000 1.000000
vt 1.000000 1.000000
vt 1.000000 1.000000
vt 1.000000 1.000000
vt 1.000000 1.000000
vt 1.000000 1.000000
vt 1.000000 1.000000
vt 1.000000 1.000000
vt 1.000000 1.000000
vt 1.000000 1.000000
s 0
f 1/1/1 2/2/1 4/4/1 3/3/1
f 3/3/1 4/4/1 6/6/1 5/5/1
f 3/3/1 5/5/1 8/8/1 7/7/1
f 6/6/1 4/4/1 9/9/1 10/10/1
f 10/10/2 9/9/2 17/17/2 18/18/2
f 6/6/3 10/10/3 18/18/3 14/14/3
f 9/9/4 4/4/4 12/12/4 17/17/4
f 5/5/3 6/6/3 14/14/3 13/13/3
f 7/7/5 8/8/5 16/16/5 15/15/5
f 3/3/4 7/7/4 15/15/4 11/11/4
f 8/8/3 5/5/3 13/13/3 16/16/3
