# Blender 3.3.1
# www.blender.org
mtllib 3207_000.mtl
o 3207_000
v -14.295746 10.193790 -1.464965
v -15.069176 10.193790 -1.464965
v -14.295746 10.193790 -1.637075
v -15.069176 10.193790 -1.637075
v -14.295746 10.193790 -10.401550
v -15.069176 10.193790 -10.401550
v -15.759117 10.193790 -1.637075
v -15.759117 10.193790 -10.401550
v -10.785675 10.193790 -1.637075
v -10.785675 10.193790 -10.401550
v -14.295746 12.843790 -1.637075
v -15.069176 12.843790 -1.637075
v -14.295746 12.843790 -10.401550
v -15.069176 12.843790 -10.401550
v -15.759117 12.843790 -1.637075
v -15.759117 12.843790 -10.401550
v -10.785675 12.843790 -1.637075
v -10.785675 12.843790 -10.401550
vn -0.0000 1.0000 -0.0000
vn 1.0000 -0.0000 -0.0000
vn -0.0000 -0.0000 -1.0000
vn -0.0000 -0.0000 1.0000
vn -1.0000 -0.0000 -0.0000
vt 1.000000 1.000000
vt 1.000000 1.000000
vt 1.000000 1.000000
vt 1.000000 1.000000
vt 1.000000 1.000000
vt 1.000000 1.000000
vt 1.000000 1.000000
vt 1.000000 1.000000
vt 1.000000 1.000000
vt 1.000000 1.000000
vt 1.000000 1.000000
vt 1.000000 1.000000
vt 1.000000 1.000000
vt 1.000000 1.000000
vt 1.000000 1.000000
vt 1.000000 1.000000
vt 1.000000 1.000000
vt 1.000000 1.000000
s 0
f 2/2/1 1/1/1 3/3/1 4/4/1
f 4/4/1 3/3/1 5/5/1 6/6/1
f 4/4/1 6/6/1 8/8/1 7/7/1
f 5/5/1 3/3/1 9/9/1 10/10/1
f 7/7/2 8/8/2 16/16/2 15/15/2
f 4/4/3 7/7/3 15/15/3 12/12/3
f 8/8/4 6/6/4 14/14/4 16/16/4
f 10/10/5 9/9/5 17/17/5 18/18/5
f 5/5/4 10/10/4 18/18/4 13/13/4
f 9/9/3 3/3/3 11/11/3 17/17/3
f 6/6/4 5/5/4 13/13/4 14/14/4
