# Blender 3.3.1
# www.blender.org
mtllib 3217_045.mtl
o 3217_045
v -74.984680 10.193790 -1.464965
v -76.062653 10.193790 -1.464965
v -74.984680 10.193790 -1.637075
v -76.062653 10.193790 -1.637075
v -74.984680 10.193790 -10.401550
v -76.062653 10.193790 -10.401550
v -83.041679 10.193790 -1.637075
v -83.041679 10.193790 -10.401550
v -74.312729 10.193790 -1.637075
v -74.312729 10.193790 -10.401550
v -74.984680 12.843790 -1.637075
v -76.062653 12.843790 -1.637075
v -74.984680 12.843790 -10.401550
v -76.062653 12.843790 -10.401550
v -83.041679 12.843790 -1.637075
v -83.041679 12.843790 -10.401550
v -74.312729 12.843790 -1.637075
v -74.312729 12.843790 -10.401550
vn -0.0000 1.0000 -0.0000
vn -0.0000 -0.0000 -1.0000
vn -0.0000 -0.0000 1.0000
vn 1.0000 -0.0000 -0.0000
vn -1.0000 -0.0000 -0.0000
vt 0.586995 1.000000
vt 0.577117 1.000000
vt 0.586995 1.000000
vt 0.577117 1.000000
vt 0.586995 1.000000
vt 0.577117 1.000000
vt 0.577117 1.000000
vt 0.577117 1.000000
vt 0.586995 1.000000
vt 0.586995 1.000000
vt 0.586995 1.000000
vt 0.577117 1.000000
vt 0.586995 1.000000
vt 0.577117 1.000000
vt 0.577117 1.000000
vt 0.577117 1.000000
vt 0.586995 1.000000
vt 0.586995 1.000000
s 0
f 2/2/1 1/1/1 3/3/1 4/4/1
f 4/4/1 3/3/1 5/5/1 6/6/1
f 4/4/1 6/6/1 8/8/1 7/7/1
f 5/5/1 3/3/1 9/9/1 10/10/1
f 9/9/2 3/3/2 11/11/2 17/17/2
f 6/6/3 5/5/3 13/13/3 14/14/3
f 7/7/4 8/8/4 16/16/4 15/15/4
f 4/4/2 7/7/2 15/15/2 12/12/2
f 8/8/3 6/6/3 14/14/3 16/16/3
f 10/10/5 9/9/5 17/17/5 18/18/5
f 5/5/3 10/10/3 18/18/3 13/13/3
