# Blender 3.3.1
# www.blender.org
mtllib 3218_053.mtl
o 3218_053
v -87.193398 10.193790 -1.464965
v -88.125305 10.193790 -1.464965
v -87.193398 10.193790 -1.637075
v -88.125305 10.193790 -1.637075
v -87.193398 10.193790 -10.401550
v -88.125305 10.193790 -10.401550
v -89.340958 10.193790 -1.637075
v -89.340958 10.193790 -10.401550
v -83.197166 10.193790 -1.637075
v -83.197166 10.193790 -10.401550
v -87.193398 12.843790 -1.637075
v -88.125305 12.843790 -1.637075
v -87.193398 12.843790 -10.401550
v -88.125305 12.843790 -10.401550
v -89.340958 12.843790 -1.637075
v -89.340958 12.843790 -10.401550
v -83.197166 12.843790 -1.637075
v -83.197166 12.843790 -10.401550
vn -0.0000 1.0000 -0.0000
vn -0.0000 -0.0000 1.0000
vn -0.0000 -0.0000 -1.0000
vn 1.0000 -0.0000 -0.0000
vn -1.0000 -0.0000 -0.0000
vt 0.451700 1.000000
vt 0.435122 1.000000
vt 0.451700 1.000000
vt 0.435122 1.000000
vt 0.451700 1.000000
vt 0.435122 1.000000
vt 0.435122 1.000000
vt 0.435122 1.000000
vt 0.451700 1.000000
vt 0.451700 1.000000
vt 0.451700 1.000000
vt 0.435122 1.000000
vt 0.451700 1.000000
vt 0.435122 1.000000
vt 0.435122 1.000000
vt 0.435122 1.000000
vt 0.451700 1.000000
vt 0.451700 1.000000
s 0
f 2/2/1 1/1/1 3/3/1 4/4/1
f 4/4/1 3/3/1 5/5/1 6/6/1
f 4/4/1 6/6/1 8/8/1 7/7/1
f 5/5/1 3/3/1 9/9/1 10/10/1
f 5/5/2 10/10/2 18/18/2 13/13/2
f 9/9/3 3/3/3 11/11/3 17/17/3
f 6/6/2 5/5/2 13/13/2 14/14/2
f 7/7/4 8/8/4 16/16/4 15/15/4
f 4/4/3 7/7/3 15/15/3 12/12/3
f 8/8/2 6/6/2 14/14/2 16/16/2
f 10/10/5 9/9/5 17/17/5 18/18/5
