# Blender 3.3.1
# www.blender.org
mtllib 3219_057.mtl
o 3219_057
v -98.970032 10.193790 -1.464965
v -100.147346 10.193790 -1.464965
v -98.970032 10.193790 -1.637075
v -100.147346 10.193790 -1.637075
v -98.970032 10.193790 -10.401550
v -100.147346 10.193790 -10.401550
v -100.812798 10.193790 -1.637075
v -100.812798 10.193790 -10.401550
v -89.598724 10.193790 -1.637075
v -89.598724 10.193790 -10.401550
v -98.970032 12.843790 -1.637075
v -100.147346 12.843790 -1.637075
v -98.970032 12.843790 -10.401550
v -100.147346 12.843790 -10.401550
v -100.812798 12.843790 -1.637075
v -100.812798 12.843790 -10.401550
v -89.598724 12.843790 -1.637075
v -89.598724 12.843790 -10.401550
vn -0.0000 1.0000 -0.0000
vn -0.0000 -0.0000 1.0000
vn -1.0000 -0.0000 -0.0000
vn -0.0000 -0.0000 -1.0000
vn 1.0000 -0.0000 -0.0000
vt 0.353322 1.000000
vt 0.344938 1.000000
vt 0.353322 1.000000
vt 0.344938 1.000000
vt 0.353322 1.000000
vt 0.344938 1.000000
vt 0.344938 1.000000
vt 0.344938 1.000000
vt 0.353322 1.000000
vt 0.353322 1.000000
vt 0.353322 1.000000
vt 0.344938 1.000000
vt 0.353322 1.000000
vt 0.344938 1.000000
vt 0.344938 1.000000
vt 0.344938 1.000000
vt 0.353322 1.000000
vt 0.353322 1.000000
s 0
f 2/2/1 1/1/1 3/3/1 4/4/1
f 4/4/1 3/3/1 5/5/1 6/6/1
f 4/4/1 6/6/1 8/8/1 7/7/1
f 5/5/1 3/3/1 9/9/1 10/10/1
f 8/8/2 6/6/2 14/14/2 16/16/2
f 10/10/3 9/9/3 17/17/3 18/18/3
f 6/6/2 5/5/2 13/13/2 14/14/2
f 5/5/2 10/10/2 18/18/2 13/13/2
f 9/9/4 3/3/4 11/11/4 17/17/4
f 7/7/5 8/8/5 16/16/5 15/15/5
f 4/4/4 7/7/4 15/15/4 12/12/4
