# Blender 3.3.1
# www.blender.org
mtllib 3223_087.mtl
o 3223_087
v -144.865082 10.193790 1.620998
v -145.788635 10.193790 1.620998
v -144.865082 10.193790 1.763753
v -145.788635 10.193790 1.763753
v -144.865082 10.193790 6.813729
v -145.788635 10.193790 6.813729
v -146.383453 10.193790 1.763753
v -146.383453 10.193790 6.813729
v -142.775803 10.193790 1.763753
v -142.775803 10.193790 6.813729
v -144.865082 12.843790 1.763753
v -145.788635 12.843790 1.763753
v -144.865082 12.843790 6.813729
v -145.788635 12.843790 6.813729
v -146.383453 12.843790 1.763753
v -146.383453 12.843790 6.813729
v -142.775803 12.843790 1.763753
v -142.775803 12.843790 6.813729
vn -0.0000 1.0000 -0.0000
vn -0.0000 -0.0000 1.0000
vn -1.0000 -0.0000 -0.0000
vn -0.0000 -0.0000 -1.0000
vn 1.0000 -0.0000 -0.0000
vt 0.000000 0.000000
vt 0.000000 0.000000
vt 0.000000 0.000000
vt 0.000000 0.000000
vt 0.000000 0.000000
vt 0.000000 0.000000
vt 0.000000 0.000000
vt 0.000000 0.000000
vt 0.000000 0.000000
vt 0.000000 0.000000
vt 0.000000 0.000000
vt 0.000000 0.000000
vt 0.000000 0.000000
vt 0.000000 0.000000
vt 0.000000 0.000000
vt 0.000000 0.000000
vt 0.000000 0.000000
vt 0.000000 0.000000
s 0
f 1/1/1 2/2/1 4/4/1 3/3/1
f 3/3/1 4/4/1 6/6/1 5/5/1
f 6/6/1 4/4/1 7/7/1 8/8/1
f 3/3/1 5/5/1 10/10/1 9/9/1
f 7/7/2 4/4/2 12/12/2 15/15/2
f 9/9/3 10/10/3 18/18/3 17/17/3
f 3/3/2 9/9/2 17/17/2 11/11/2
f 5/5/4 6/6/4 14/14/4 13/13/4
f 10/10/4 5/5/4 13/13/4 18/18/4
f 8/8/5 7/7/5 15/15/5 16/16/5
f 6/6/4 8/8/4 16/16/4 14/14/4
