# Blender 3.3.1
# www.blender.org
mtllib 3229_075.mtl
o 3229_075
v -122.025230 10.193790 1.620998
v -122.950516 10.193790 1.620998
v -122.025230 10.193790 1.763753
v -122.950516 10.193790 1.763753
v -122.025230 10.193790 6.813729
v -122.950516 10.193790 6.813729
v -119.958252 10.193790 1.763753
v -119.958252 10.193790 6.813729
v -123.649414 10.193790 1.763753
v -123.649414 10.193790 6.813729
v -119.839691 10.193790 1.763753
v -119.839691 10.193790 6.813729
v -122.025230 12.843790 1.763753
v -122.950516 12.843790 1.763753
v -122.025230 12.843790 6.813729
v -122.950516 12.843790 6.813729
v -119.958252 12.843790 1.763753
v -119.958252 12.843790 6.813729
v -123.649414 12.843790 1.763753
v -123.649414 12.843790 6.813729
v -119.839691 12.843790 1.763753
v -119.839691 12.843790 6.813729
vn -0.0000 1.0000 -0.0000
vn -1.0000 -0.0000 -0.0000
vn -0.0000 -0.0000 1.0000
vn -0.0000 -0.0000 -1.0000
vn 1.0000 -0.0000 -0.0000
vt 0.147842 0.000000
vt 0.138634 0.000000
vt 0.147842 0.000000
vt 0.138634 0.000000
vt 0.147842 0.000000
vt 0.138634 0.000000
vt 0.147842 0.000000
vt 0.147842 0.000000
vt 0.138634 0.000000
vt 0.138634 0.000000
vt 0.176465 0.000000
vt 0.176465 0.000000
vt 0.147842 0.000000
vt 0.138634 0.000000
vt 0.147842 0.000000
vt 0.138634 0.000000
vt 0.147842 0.000000
vt 0.147842 0.000000
vt 0.138634 0.000000
vt 0.138634 0.000000
vt 0.176465 0.000000
vt 0.176465 0.000000
s 0
f 1/1/1 2/2/1 4/4/1 3/3/1
f 3/3/1 4/4/1 6/6/1 5/5/1
f 3/3/1 5/5/1 8/8/1 7/7/1
f 6/6/1 4/4/1 9/9/1 10/10/1
f 7/7/2 8/8/2 18/18/2 17/17/2
f 3/3/3 7/7/3 17/17/3 13/13/3
f 8/8/4 5/5/4 15/15/4 18/18/4
f 10/10/5 9/9/5 19/19/5 20/20/5
f 6/6/4 10/10/4 20/20/4 16/16/4
f 9/9/3 4/4/3 14/14/3 19/19/3
f 12/12/5 11/11/5 21/21/5 22/22/5
f 5/5/4 6/6/4 16/16/4 15/15/4
