# Blender 3.3.1
# www.blender.org
mtllib 3240_041.mtl
o 3240_041
v -67.054855 10.193790 1.620998
v -66.124130 10.193790 1.620998
v -67.054855 10.193790 1.763753
v -66.124130 10.193790 1.763753
v -67.054855 10.193790 6.813729
v -66.124130 10.193790 6.813729
v -69.114403 10.193790 1.763753
v -69.114403 10.193790 6.813729
v -65.469833 10.193790 1.763753
v -65.469833 10.193790 6.813729
v -67.054855 12.843790 1.763753
v -66.124130 12.843790 1.763753
v -67.054855 12.843790 6.813729
v -66.124130 12.843790 6.813729
v -69.114403 12.843790 1.763753
v -69.114403 12.843790 6.813729
v -65.469833 12.843790 1.763753
v -65.469833 12.843790 6.813729
vn -0.0000 1.0000 -0.0000
vn 1.0000 -0.0000 -0.0000
vn -0.0000 -0.0000 -1.0000
vn -0.0000 -0.0000 1.0000
vn -1.0000 -0.0000 -0.0000
vt 0.659662 0.000000
vt 0.668190 0.000000
vt 0.659662 0.000000
vt 0.668190 0.000000
vt 0.659662 0.000000
vt 0.668190 0.000000
vt 0.659662 0.000000
vt 0.659662 0.000000
vt 0.668190 0.000000
vt 0.668190 0.000000
vt 0.659662 0.000000
vt 0.668190 0.000000
vt 0.659662 0.000000
vt 0.668190 0.000000
vt 0.659662 0.000000
vt 0.659662 0.000000
vt 0.668190 0.000000
vt 0.668190 0.000000
s 0
f 2/2/1 1/1/1 3/3/1 4/4/1
f 4/4/1 3/3/1 5/5/1 6/6/1
f 5/5/1 3/3/1 7/7/1 8/8/1
f 4/4/1 6/6/1 10/10/1 9/9/1
f 8/8/2 7/7/2 15/15/2 16/16/2
f 5/5/3 8/8/3 16/16/3 13/13/3
f 7/7/4 3/3/4 11/11/4 15/15/4
f 9/9/5 10/10/5 18/18/5 17/17/5
f 4/4/4 9/9/4 17/17/4 12/12/4
f 10/10/3 6/6/3 14/14/3 18/18/3
f 6/6/3 5/5/3 13/13/3 14/14/3
