# Blender 3.3.1
# www.blender.org
mtllib 3247_028.mtl
o 3247_028
v -36.751080 10.193790 1.620998
v -35.835133 10.193790 1.620998
v -36.751080 10.193790 1.763753
v -35.835133 10.193790 1.763753
v -36.751080 10.193790 6.813729
v -35.835133 10.193790 6.813729
v -37.427677 10.193790 1.763753
v -37.427677 10.193790 6.813729
v -33.812763 10.193790 1.763753
v -33.812763 10.193790 6.813729
v -36.751080 12.843790 1.763753
v -35.835133 12.843790 1.763753
v -36.751080 12.843790 6.813729
v -35.835133 12.843790 6.813729
v -37.427677 12.843790 1.763753
v -37.427677 12.843790 6.813729
v -33.812763 12.843790 1.763753
v -33.812763 12.843790 6.813729
vn -0.0000 1.0000 -0.0000
vn -0.0000 -0.0000 -1.0000
vn 1.0000 -0.0000 -0.0000
vn -0.0000 -0.0000 1.0000
vn -1.0000 -0.0000 -0.0000
vt 0.935172 0.000000
vt 0.943858 0.000000
vt 0.935172 0.000000
vt 0.943858 0.000000
vt 0.935172 0.000000
vt 0.943858 0.000000
vt 0.935172 0.000000
vt 0.935172 0.000000
vt 0.943858 0.000000
vt 0.943858 0.000000
vt 0.935172 0.000000
vt 0.943858 0.000000
vt 0.935172 0.000000
vt 0.943858 0.000000
vt 0.935172 0.000000
vt 0.935172 0.000000
vt 0.943858 0.000000
vt 0.943858 0.000000
s 0
f 2/2/1 1/1/1 3/3/1 4/4/1
f 4/4/1 3/3/1 5/5/1 6/6/1
f 5/5/1 3/3/1 7/7/1 8/8/1
f 4/4/1 6/6/1 10/10/1 9/9/1
f 6/6/2 5/5/2 13/13/2 14/14/2
f 8/8/3 7/7/3 15/15/3 16/16/3
f 5/5/2 8/8/2 16/16/2 13/13/2
f 7/7/4 3/3/4 11/11/4 15/15/4
f 9/9/5 10/10/5 18/18/5 17/17/5
f 4/4/4 9/9/4 17/17/4 12/12/4
f 10/10/2 6/6/2 14/14/2 18/18/2
