# Blender 3.3.1
# www.blender.org
mtllib 3248_027.mtl
o 3248_027
v -32.881260 10.193790 1.620998
v -31.950420 10.193790 1.620998
v -32.881260 10.193790 1.763753
v -31.950420 10.193790 1.763753
v -32.881260 10.193790 6.813729
v -31.950420 10.193790 6.813729
v -29.734734 10.193790 1.763753
v -29.734734 10.193790 6.813729
v -33.550430 10.193790 1.763753
v -33.550430 10.193790 6.813729
v -32.881260 12.843790 1.763753
v -31.950420 12.843790 1.763753
v -32.881260 12.843790 6.813729
v -31.950420 12.843790 6.813729
v -29.734734 12.843790 1.763753
v -29.734734 12.843790 6.813729
v -33.550430 12.843790 1.763753
v -33.550430 12.843790 6.813729
vn -0.0000 1.0000 -0.0000
vn -0.0000 -0.0000 -1.0000
vn -0.0000 -0.0000 1.0000
vn -1.0000 -0.0000 -0.0000
vn 1.0000 -0.0000 -0.0000
vt 0.971870 0.000000
vt 0.980698 0.000000
vt 0.971870 0.000000
vt 0.980698 0.000000
vt 0.971870 0.000000
vt 0.980698 0.000000
vt 0.980698 0.000000
vt 0.980698 0.000000
vt 0.971870 0.000000
vt 0.971870 0.000000
vt 0.971870 0.000000
vt 0.980698 0.000000
vt 0.971870 0.000000
vt 0.980698 0.000000
vt 0.980698 0.000000
vt 0.980698 0.000000
vt 0.971870 0.000000
vt 0.971870 0.000000
s 0
f 2/2/1 1/1/1 3/3/1 4/4/1
f 4/4/1 3/3/1 5/5/1 6/6/1
f 4/4/1 6/6/1 8/8/1 7/7/1
f 5/5/1 3/3/1 9/9/1 10/10/1
f 5/5/2 10/10/2 18/18/2 13/13/2
f 9/9/3 3/3/3 11/11/3 17/17/3
f 6/6/2 5/5/2 13/13/2 14/14/2
f 7/7/4 8/8/4 16/16/4 15/15/4
f 4/4/3 7/7/3 15/15/3 12/12/3
f 8/8/2 6/6/2 14/14/2 16/16/2
f 10/10/5 9/9/5 17/17/5 18/18/5
